{
  "accessors": [
    {
      "bufferView": 2,
      "componentType": 5126,
      "count": 65532,
      "max": [
        1273.0467529296875,
        566.9354858398438,
        627.48388671875
      ],
      "min": [
        -1467.9410400390625,
        -41.4068489074707,
        -696.5167236328125
      ],
      "type": "VEC3"
    },
    {
      "bufferView": 2,
      "byteOffset": 786384,
      "componentType": 5126,
      "count": 65532,
      "max": [
        0.9310195446014404,
        0.9999998807907104,
        0.9999983906745911
      ],
      "min": [
        -0.9999973177909851,
        -0.9819287657737732,
        -0.9975289702415466
      ],
      "type": "VEC3"
    },
    {
      "bufferView": 1,
      "componentType": 5126,
      "count": 65532,
      "max": [
        0.981630802154541,
        0.991936445236206
      ],
      "min": [
        0.003110654652118683,
        0.00390625
      ],
      "type": "VEC2"
    },
    {
      "bufferView": 0,
      "componentType": 5125,
      "count": 342372,
      "type": "SCALAR"
    },
    {
      "bufferView": 2,
      "byteOffset": 1572768,
      "componentType": 5126,
      "count": 65532,
      "max": [
        1039.73681640625,
        596.4862670898438,
        606.15380859375
      ],
      "min": [
        -1457.045654296875,
        -42.67938232421875,
        -354.9493103027344
      ],
      "type": "VEC3"
    },
    {
      "bufferView": 2,
      "byteOffset": 2359152,
      "componentType": 5126,
      "count": 65532,
      "max": [
        0.9993667006492615,
        0.9999809265136719,
        0.9999998807907104
      ],
      "min": [
        -0.9999968409538269,
        -0.9989331960678101,
        -0.9727973937988281
      ],
      "type": "VEC3"
    },
    {
      "bufferView": 1,
      "byteOffset": 524256,
      "componentType": 5126,
      "count": 65532,
      "max": [
        0.9972269535064697,
        0.9994626641273499
      ],
      "min": [
        2.2768742446999113e-09,
        0.004526495933532715
      ],
      "type": "VEC2"
    },
    {
      "bufferView": 0,
      "byteOffset": 1369488,
      "componentType": 5125,
      "count": 344901,
      "type": "SCALAR"
    },
    {
      "bufferView": 2,
      "byteOffset": 3145536,
      "componentType": 5126,
      "count": 65532,
      "max": [
        606.0360107421875,
        903.0673217773438,
        626.6934204101563
      ],
      "min": [
        -1413.88818359375,
        -47.205101013183594,
        -376.23638916015625
      ],
      "type": "VEC3"
    },
    {
      "bufferView": 2,
      "byteOffset": 3931920,
      "componentType": 5126,
      "count": 65532,
      "max": [
        0.9910500645637512,
        1.0,
        0.9999693632125854
      ],
      "min": [
        -0.9999955296516418,
        -0.9769076108932495,
        -0.9514161348342896
      ],
      "type": "VEC3"
    },
    {
      "bufferView": 1,
      "byteOffset": 1048512,
      "componentType": 5126,
      "count": 65532,
      "max": [
        0.9098473191261292,
        0.9994472861289978
      ],
      "min": [
        2.293853322044015e-05,
        0.014338016510009766
      ],
      "type": "VEC2"
    },
    {
      "bufferView": 0,
      "byteOffset": 2749092,
      "componentType": 5125,
      "count": 346863,
      "type": "SCALAR"
    },
    {
      "bufferView": 2,
      "byteOffset": 4718304,
      "componentType": 5126,
      "count": 65532,
      "max": [
        556.27783203125,
        910.341796875,
        555.7598876953125
      ],
      "min": [
        -1630.9879150390625,
        -48.8995361328125,
        -592.219482421875
      ],
      "type": "VEC3"
    },
    {
      "bufferView": 2,
      "byteOffset": 5504688,
      "componentType": 5126,
      "count": 65532,
      "max": [
        0.9985881447792053,
        0.9999993443489075,
        0.9999731183052063
      ],
      "min": [
        -0.9999973177909851,
        -0.998885452747345,
        -0.9999895095825195
      ],
      "type": "VEC3"
    },
    {
      "bufferView": 1,
      "byteOffset": 1572768,
      "componentType": 5126,
      "count": 65532,
      "max": [
        0.9872562289237976,
        0.9995831847190857
      ],
      "min": [
        4.783279550224506e-09,
        0.015678048133850098
      ],
      "type": "VEC2"
    },
    {
      "bufferView": 0,
      "byteOffset": 4136544,
      "componentType": 5125,
      "count": 334353,
      "type": "SCALAR"
    },
    {
      "bufferView": 2,
      "byteOffset": 6291072,
      "componentType": 5126,
      "count": 65532,
      "max": [
        982.552490234375,
        899.5860595703125,
        244.53732299804688
      ],
      "min": [
        -1465.96240234375,
        -48.51980972290039,
        -635.3495483398438
      ],
      "type": "VEC3"
    },
    {
      "bufferView": 2,
      "byteOffset": 7077456,
      "componentType": 5126,
      "count": 65532,
      "max": [
        0.9978948831558228,
        1.0,
        0.9841418266296387
      ],
      "min": [
        -0.9999909400939941,
        -0.9995228052139282,
        -0.9999982714653015
      ],
      "type": "VEC3"
    },
    {
      "bufferView": 1,
      "byteOffset": 2097024,
      "componentType": 5126,
      "count": 65532,
      "max": [
        0.9942869544029236,
        0.9997416138648987
      ],
      "min": [
        2.1910744330000398e-09,
        0.013968586921691895
      ],
      "type": "VEC2"
    },
    {
      "bufferView": 0,
      "byteOffset": 5473956,
      "componentType": 5125,
      "count": 321993,
      "type": "SCALAR"
    },
    {
      "bufferView": 2,
      "byteOffset": 7863840,
      "componentType": 5126,
      "count": 65532,
      "max": [
        1131.735595703125,
        940.9869995117188,
        571.6076049804688
      ],
      "min": [
        -988.6256713867188,
        139.01351928710938,
        -608.4105224609375
      ],
      "type": "VEC3"
    },
    {
      "bufferView": 2,
      "byteOffset": 8650224,
      "componentType": 5126,
      "count": 65532,
      "max": [
        0.9996678233146667,
        0.9999971985816956,
        0.9999974370002747
      ],
      "min": [
        -0.999617338180542,
        -0.999683141708374,
        -0.9999993443489075
      ],
      "type": "VEC3"
    },
    {
      "bufferView": 1,
      "byteOffset": 2621280,
      "componentType": 5126,
      "count": 65532,
      "max": [
        0.9909639954566956,
        0.9997725486755371
      ],
      "min": [
        2.8825954956346322e-08,
        0.047298431396484375
      ],
      "type": "VEC2"
    },
    {
      "bufferView": 0,
      "byteOffset": 6761928,
      "componentType": 5125,
      "count": 324750,
      "type": "SCALAR"
    },
    {
      "bufferView": 2,
      "byteOffset": 9436608,
      "componentType": 5126,
      "count": 65532,
      "max": [
        1249.848388671875,
        786.8158569335938,
        587.7863159179688
      ],
      "min": [
        -103.60933685302734,
        12.08810806274414,
        -489.929443359375
      ],
      "type": "VEC3"
    },
    {
      "bufferView": 2,
      "byteOffset": 10222992,
      "componentType": 5126,
      "count": 65532,
      "max": [
        0.999966561794281,
        0.9999684691429138,
        0.9999858140945435
      ],
      "min": [
        -0.9995324611663818,
        -0.9947736859321594,
        -0.999697744846344
      ],
      "type": "VEC3"
    },
    {
      "bufferView": 1,
      "byteOffset": 3145536,
      "componentType": 5126,
      "count": 65532,
      "max": [
        0.9908027052879333,
        0.9992073178291321
      ],
      "min": [
        5.60416912875894e-09,
        0.008113980293273926
      ],
      "type": "VEC2"
    },
    {
      "bufferView": 0,
      "byteOffset": 8060928,
      "componentType": 5125,
      "count": 337182,
      "type": "SCALAR"
    },
    {
      "bufferView": 2,
      "byteOffset": 11009376,
      "componentType": 5126,
      "count": 65532,
      "max": [
        1273.0467529296875,
        640.00634765625,
        455.98956298828125
      ],
      "min": [
        397.2658386230469,
        -4.971151351928711,
        -672.3903198242188
      ],
      "type": "VEC3"
    },
    {
      "bufferView": 2,
      "byteOffset": 11795760,
      "componentType": 5126,
      "count": 65532,
      "max": [
        0.9999991059303284,
        0.9999996423721313,
        0.9910224080085754
      ],
      "min": [
        -0.9995543360710144,
        -0.9997346997261047,
        -0.9999891519546509
      ],
      "type": "VEC3"
    },
    {
      "bufferView": 1,
      "byteOffset": 3669792,
      "componentType": 5126,
      "count": 65532,
      "max": [
        0.9902116656303406,
        0.9997096061706543
      ],
      "min": [
        5.243391569820233e-06,
        0.015653610229492188
      ],
      "type": "VEC2"
    },
    {
      "bufferView": 0,
      "byteOffset": 9409656,
      "componentType": 5125,
      "count": 325194,
      "type": "SCALAR"
    },
    {
      "bufferView": 2,
      "byteOffset": 12582144,
      "componentType": 5126,
      "count": 65037,
      "max": [
        1477.3858642578125,
        851.7068481445313,
        589.772705078125
      ],
      "min": [
        -1413.249755859375,
        -42.74419021606445,
        -664.777587890625
      ],
      "type": "VEC3"
    },
    {
      "bufferView": 2,
      "byteOffset": 13362588,
      "componentType": 5126,
      "count": 65037,
      "max": [
        0.9999504089355469,
        0.9999982714653015,
        0.9999933838844299
      ],
      "min": [
        -0.9999955296516418,
        -0.9995474815368652,
        -0.9999751448631287
      ],
      "type": "VEC3"
    },
    {
      "bufferView": 1,
      "byteOffset": 4194048,
      "componentType": 5126,
      "count": 65037,
      "max": [
        0.9985001087188721,
        0.9996761679649353
      ],
      "min": [
        1.6244491307659814e-09,
        0.0009769201278686523
      ],
      "type": "VEC2"
    },
    {
      "bufferView": 0,
      "byteOffset": 10710432,
      "componentType": 5125,
      "count": 242541,
      "type": "SCALAR"
    }
  ],
  "asset": {
    "extras": {
      "author": "MrUnity (https://sketchfab.com/MrUnityCreations)",
      "license": "CC-BY-NC-SA-4.0 (http://creativecommons.org/licenses/by-nc-sa/4.0/)",
      "source": "https://sketchfab.com/3d-models/zaz-daewoo-l-1300-raw-scan-8c207d262e5448999a78ed810b510061",
      "title": "ZAZ-Daewoo L-1300 [RAW SCAN]"
    },
    "generator": "Sketchfab-12.66.0",
    "version": "2.0"
  },
  "bufferViews": [
    {
      "buffer": 0,
      "byteLength": 11680596,
      "name": "floatBufferViews",
      "target": 34963
    },
    {
      "buffer": 0,
      "byteLength": 4714344,
      "byteOffset": 11680596,
      "byteStride": 8,
      "name": "floatBufferViews",
      "target": 34962
    },
    {
      "buffer": 0,
      "byteLength": 14143032,
      "byteOffset": 16394940,
      "byteStride": 12,
      "name": "floatBufferViews",
      "target": 34962
    }
  ],
  "buffers": [
    {
      "byteLength": 30537972,
      "uri": "scene.bin"
    }
  ],
  "extensionsUsed": [
    "KHR_materials_unlit"
  ],
  "images": [
    {
      "uri": "textures/material0_baseColor.jpeg"
    }
  ],
  "materials": [
    {
      "doubleSided": true,
      "extensions": {
        "KHR_materials_unlit": {}
      },
      "name": "material0",
      "pbrMetallicRoughness": {
        "baseColorTexture": {
          "index": 0
        },
        "metallicFactor": 0.0
      }
    }
  ],
  "meshes": [
    {
      "name": "Model_material0_0",
      "primitives": [
        {
          "attributes": {
            "NORMAL": 1,
            "POSITION": 0,
            "TEXCOORD_0": 2
          },
          "indices": 3,
          "material": 0,
          "mode": 4
        }
      ]
    },
    {
      "name": "Model_material0_0",
      "primitives": [
        {
          "attributes": {
            "NORMAL": 5,
            "POSITION": 4,
            "TEXCOORD_0": 6
          },
          "indices": 7,
          "material": 0,
          "mode": 4
        }
      ]
    },
    {
      "name": "Model_material0_0",
      "primitives": [
        {
          "attributes": {
            "NORMAL": 9,
            "POSITION": 8,
            "TEXCOORD_0": 10
          },
          "indices": 11,
          "material": 0,
          "mode": 4
        }
      ]
    },
    {
      "name": "Model_material0_0",
      "primitives": [
        {
          "attributes": {
            "NORMAL": 13,
            "POSITION": 12,
            "TEXCOORD_0": 14
          },
          "indices": 15,
          "material": 0,
          "mode": 4
        }
      ]
    },
    {
      "name": "Model_material0_0",
      "primitives": [
        {
          "attributes": {
            "NORMAL": 17,
            "POSITION": 16,
            "TEXCOORD_0": 18
          },
          "indices": 19,
          "material": 0,
          "mode": 4
        }
      ]
    },
    {
      "name": "Model_material0_0",
      "primitives": [
        {
          "attributes": {
            "NORMAL": 21,
            "POSITION": 20,
            "TEXCOORD_0": 22
          },
          "indices": 23,
          "material": 0,
          "mode": 4
        }
      ]
    },
    {
      "name": "Model_material0_0",
      "primitives": [
        {
          "attributes": {
            "NORMAL": 25,
            "POSITION": 24,
            "TEXCOORD_0": 26
          },
          "indices": 27,
          "material": 0,
          "mode": 4
        }
      ]
    },
    {
      "name": "Model_material0_0",
      "primitives": [
        {
          "attributes": {
            "NORMAL": 29,
            "POSITION": 28,
            "TEXCOORD_0": 30
          },
          "indices": 31,
          "material": 0,
          "mode": 4
        }
      ]
    },
    {
      "name": "Model_material0_0",
      "primitives": [
        {
          "attributes": {
            "NORMAL": 33,
            "POSITION": 32,
            "TEXCOORD_0": 34
          },
          "indices": 35,
          "material": 0,
          "mode": 4
        }
      ]
    }
  ],
  "nodes": [
    {
      "children": [
        1
      ],
      "matrix": [
        0.9996427297592163,
        -0.026728985831141472,
        -5.935027098922568e-18,
        0.0,
        0.0,
        2.220446049250313e-16,
        -1.0,
        0.0,
        0.026728985831141472,
        0.9996427297592163,
        2.2196527499556502e-16,
        0.0,
        -0.11949773132801056,
        -0.018935127183794975,
        -4.204442834730976e-18,
        1.0
      ],
      "name": "Sketchfab_model"
    },
    {
      "children": [
        2
      ],
      "matrix": [
        0.009999999776482582,
        0.0,
        0.0,
        0.0,
        0.0,
        0.0,
        0.009999999776482582,
        0.0,
        0.0,
        -0.009999999776482582,
        0.0,
        0.0,
        0.0,
        0.0,
        0.0,
        1.0
      ],
      "name": "d81af2a184bf447ea6626e55d1343f45.fbx"
    },
    {
      "children": [
        3
      ],
      "name": "RootNode"
    },
    {
      "children": [
        4,
        5,
        6,
        7,
        8,
        9,
        10,
        11,
        12
      ],
      "name": "Model"
    },
    {
      "mesh": 0,
      "name": "Model_material0_0"
    },
    {
      "mesh": 1,
      "name": "Model_material0_0"
    },
    {
      "mesh": 2,
      "name": "Model_material0_0"
    },
    {
      "mesh": 3,
      "name": "Model_material0_0"
    },
    {
      "mesh": 4,
      "name": "Model_material0_0"
    },
    {
      "mesh": 5,
      "name": "Model_material0_0"
    },
    {
      "mesh": 6,
      "name": "Model_material0_0"
    },
    {
      "mesh": 7,
      "name": "Model_material0_0"
    },
    {
      "mesh": 8,
      "name": "Model_material0_0"
    }
  ],
  "samplers": [
    {
      "magFilter": 9729,
      "minFilter": 9987,
      "wrapS": 10497,
      "wrapT": 10497
    }
  ],
  "scene": 0,
  "scenes": [
    {
      "name": "Sketchfab_Scene",
      "nodes": [
        0
      ]
    }
  ],
  "textures": [
    {
      "sampler": 0,
      "source": 0
    }
  ]
}
