{
  "accessors": [
    {
      "bufferView": 2,
      "componentType": 5126,
      "count": 65534,
      "max": [
        7.857561111450195,
        -2.0499844551086426,
        17.333810806274414
      ],
      "min": [
        -16.55121612548828,
        -50.30918502807617,
        -10.524260520935059
      ],
      "type": "VEC3"
    },
    {
      "bufferView": 2,
      "byteOffset": 786408,
      "componentType": 5126,
      "count": 65534,
      "max": [
        0.9999982118606567,
        0.9999685287475586,
        0.9999887347221375
      ],
      "min": [
        -0.9999889731407166,
        -0.9999821782112122,
        -0.9999948740005493
      ],
      "type": "VEC3"
    },
    {
      "bufferView": 1,
      "componentType": 5126,
      "count": 65534,
      "max": [
        0.9998000264167786,
        0.6558840274810791
      ],
      "min": [
        0.00012199999764561653,
        0.00033599999733269215
      ],
      "type": "VEC2"
    },
    {
      "bufferView": 0,
      "componentType": 5125,
      "count": 179883,
      "type": "SCALAR"
    },
    {
      "bufferView": 2,
      "byteOffset": 1572816,
      "componentType": 5126,
      "count": 65532,
      "max": [
        15.306526184082031,
        -14.66506576538086,
        16.692432403564453
      ],
      "min": [
        -16.251659393310547,
        -49.5755500793457,
        -21.349720001220703
      ],
      "type": "VEC3"
    },
    {
      "bufferView": 2,
      "byteOffset": 2359200,
      "componentType": 5126,
      "count": 65532,
      "max": [
        0.999970018863678,
        0.9999478459358215,
        0.9999243021011353
      ],
      "min": [
        -0.9999338984489441,
        -0.9999723434448242,
        -0.9999799132347107
      ],
      "type": "VEC3"
    },
    {
      "bufferView": 1,
      "byteOffset": 524272,
      "componentType": 5126,
      "count": 65532,
      "max": [
        0.9998019933700562,
        0.6561279892921448
      ],
      "min": [
        0.00012199999764561653,
        0.0004079999926034361
      ],
      "type": "VEC2"
    },
    {
      "bufferView": 0,
      "byteOffset": 719532,
      "componentType": 5125,
      "count": 122619,
      "type": "SCALAR"
    },
    {
      "bufferView": 2,
      "byteOffset": 3145584,
      "componentType": 5126,
      "count": 65532,
      "max": [
        17.34814453125,
        -11.257436752319336,
        16.304309844970703
      ],
      "min": [
        -15.845690727233887,
        -40.92719268798828,
        -21.379457473754883
      ],
      "type": "VEC3"
    },
    {
      "bufferView": 2,
      "byteOffset": 3931968,
      "componentType": 5126,
      "count": 65532,
      "max": [
        0.9999663829803467,
        0.9999735355377197,
        0.9999903440475464
      ],
      "min": [
        -0.9999568462371826,
        -0.9999231696128845,
        -0.999946117401123
      ],
      "type": "VEC3"
    },
    {
      "bufferView": 1,
      "byteOffset": 1048528,
      "componentType": 5126,
      "count": 65532,
      "max": [
        0.9997439980506897,
        0.6561279892921448
      ],
      "min": [
        0.00012199999764561653,
        0.007519000209867954
      ],
      "type": "VEC2"
    },
    {
      "bufferView": 0,
      "byteOffset": 1210008,
      "componentType": 5125,
      "count": 141777,
      "type": "SCALAR"
    },
    {
      "bufferView": 2,
      "byteOffset": 4718352,
      "componentType": 5126,
      "count": 65532,
      "max": [
        15.970902442932129,
        -15.79428768157959,
        6.359828472137451
      ],
      "min": [
        -2.0390777587890625,
        -50.0454216003418,
        -8.813262939453125
      ],
      "type": "VEC3"
    },
    {
      "bufferView": 2,
      "byteOffset": 5504736,
      "componentType": 5126,
      "count": 65532,
      "max": [
        0.9999931454658508,
        0.999914824962616,
        0.9999961853027344
      ],
      "min": [
        -0.9999773502349854,
        -0.9998859167098999,
        -0.9999738335609436
      ],
      "type": "VEC3"
    },
    {
      "bufferView": 1,
      "byteOffset": 1572784,
      "componentType": 5126,
      "count": 65532,
      "max": [
        0.9998059868812561,
        0.6558840274810791
      ],
      "min": [
        0.00012199999764561653,
        0.0002209999947808683
      ],
      "type": "VEC2"
    },
    {
      "bufferView": 0,
      "byteOffset": 1777116,
      "componentType": 5125,
      "count": 197226,
      "type": "SCALAR"
    },
    {
      "bufferView": 2,
      "byteOffset": 6291120,
      "componentType": 5126,
      "count": 65532,
      "max": [
        15.523641586303711,
        -2.00669002532959,
        14.114056587219238
      ],
      "min": [
        -13.849502563476563,
        -62.453277587890625,
        -14.69890308380127
      ],
      "type": "VEC3"
    },
    {
      "bufferView": 2,
      "byteOffset": 7077504,
      "componentType": 5126,
      "count": 65532,
      "max": [
        0.9999880194664001,
        0.9999863505363464,
        0.9999961853027344
      ],
      "min": [
        -0.9999779462814331,
        -0.9999052882194519,
        -0.9999948740005493
      ],
      "type": "VEC3"
    },
    {
      "bufferView": 1,
      "byteOffset": 2097040,
      "componentType": 5126,
      "count": 65532,
      "max": [
        0.9997820258140564,
        0.6561279892921448
      ],
      "min": [
        0.00012199999764561653,
        0.010115999728441238
      ],
      "type": "VEC2"
    },
    {
      "bufferView": 0,
      "byteOffset": 2566020,
      "componentType": 5125,
      "count": 146421,
      "type": "SCALAR"
    },
    {
      "bufferView": 2,
      "byteOffset": 7863888,
      "componentType": 5126,
      "count": 65532,
      "max": [
        11.318221092224121,
        -14.567733764648438,
        20.458833694458008
      ],
      "min": [
        -19.74764633178711,
        -44.15191650390625,
        -14.460949897766113
      ],
      "type": "VEC3"
    },
    {
      "bufferView": 2,
      "byteOffset": 8650272,
      "componentType": 5126,
      "count": 65532,
      "max": [
        0.9999953508377075,
        0.9999372959136963,
        0.9998345971107483
      ],
      "min": [
        -0.9998491406440735,
        -0.999907910823822,
        -0.9999225735664368
      ],
      "type": "VEC3"
    },
    {
      "bufferView": 1,
      "byteOffset": 2621296,
      "componentType": 5126,
      "count": 65532,
      "max": [
        0.9997699856758118,
        0.6561279892921448
      ],
      "min": [
        0.00012199999764561653,
        0.010881000198423862
      ],
      "type": "VEC2"
    },
    {
      "bufferView": 0,
      "byteOffset": 3151704,
      "componentType": 5125,
      "count": 150513,
      "type": "SCALAR"
    },
    {
      "bufferView": 2,
      "byteOffset": 9436656,
      "componentType": 5126,
      "count": 55970,
      "max": [
        15.850447654724121,
        -18.02219009399414,
        17.659156799316406
      ],
      "min": [
        -12.985806465148926,
        -48.46881866455078,
        -21.146484375
      ],
      "type": "VEC3"
    },
    {
      "bufferView": 2,
      "byteOffset": 10108296,
      "componentType": 5126,
      "count": 55970,
      "max": [
        0.9999933838844299,
        0.9999924898147583,
        0.9997604489326477
      ],
      "min": [
        -0.9999968409538269,
        -0.999943733215332,
        -0.9999123811721802
      ],
      "type": "VEC3"
    },
    {
      "bufferView": 1,
      "byteOffset": 3145552,
      "componentType": 5126,
      "count": 55970,
      "max": [
        0.9998059868812561,
        0.6558840274810791
      ],
      "min": [
        0.00012199999764561653,
        0.00033000000985339284
      ],
      "type": "VEC2"
    },
    {
      "bufferView": 0,
      "byteOffset": 3753756,
      "componentType": 5125,
      "count": 116745,
      "type": "SCALAR"
    }
  ],
  "asset": {
    "extras": {
      "author": "Epic_Tree_Store (https://sketchfab.com/johngreenstone)",
      "license": "CC-BY-4.0 (http://creativecommons.org/licenses/by/4.0/)",
      "source": "https://sketchfab.com/3d-models/tree-free-extra-details-scan-cdb8c99aa5774fcab712f9082b061a9d",
      "title": "Tree Free Extra details scan"
    },
    "generator": "Sketchfab-14.70.0",
    "version": "2.0"
  },
  "bufferViews": [
    {
      "buffer": 0,
      "byteLength": 4220736,
      "name": "floatBufferViews",
      "target": 34963
    },
    {
      "buffer": 0,
      "byteLength": 3593312,
      "byteOffset": 4220736,
      "byteStride": 8,
      "name": "floatBufferViews",
      "target": 34962
    },
    {
      "buffer": 0,
      "byteLength": 10779936,
      "byteOffset": 7814048,
      "byteStride": 12,
      "name": "floatBufferViews",
      "target": 34962
    }
  ],
  "buffers": [
    {
      "byteLength": 18593984,
      "uri": "scene.bin"
    }
  ],
  "extensionsUsed": [
    "KHR_materials_unlit"
  ],
  "images": [
    {
      "uri": "textures/tree_Material_u1_v1_baseColor.png"
    }
  ],
  "materials": [
    {
      "alphaCutoff": 0.7299923780487805,
      "alphaMode": "MASK",
      "doubleSided": true,
      "extensions": {
        "KHR_materials_unlit": {}
      },
      "name": "tree_Material_u1_v1",
      "pbrMetallicRoughness": {
        "baseColorTexture": {
          "index": 0
        },
        "metallicFactor": 0.0
      }
    }
  ],
  "meshes": [
    {
      "name": "Object_0",
      "primitives": [
        {
          "attributes": {
            "NORMAL": 1,
            "POSITION": 0,
            "TEXCOORD_0": 2
          },
          "indices": 3,
          "material": 0,
          "mode": 4
        }
      ]
    },
    {
      "name": "Object_1",
      "primitives": [
        {
          "attributes": {
            "NORMAL": 5,
            "POSITION": 4,
            "TEXCOORD_0": 6
          },
          "indices": 7,
          "material": 0,
          "mode": 4
        }
      ]
    },
    {
      "name": "Object_2",
      "primitives": [
        {
          "attributes": {
            "NORMAL": 9,
            "POSITION": 8,
            "TEXCOORD_0": 10
          },
          "indices": 11,
          "material": 0,
          "mode": 4
        }
      ]
    },
    {
      "name": "Object_3",
      "primitives": [
        {
          "attributes": {
            "NORMAL": 13,
            "POSITION": 12,
            "TEXCOORD_0": 14
          },
          "indices": 15,
          "material": 0,
          "mode": 4
        }
      ]
    },
    {
      "name": "Object_4",
      "primitives": [
        {
          "attributes": {
            "NORMAL": 17,
            "POSITION": 16,
            "TEXCOORD_0": 18
          },
          "indices": 19,
          "material": 0,
          "mode": 4
        }
      ]
    },
    {
      "name": "Object_5",
      "primitives": [
        {
          "attributes": {
            "NORMAL": 21,
            "POSITION": 20,
            "TEXCOORD_0": 22
          },
          "indices": 23,
          "material": 0,
          "mode": 4
        }
      ]
    },
    {
      "name": "Object_6",
      "primitives": [
        {
          "attributes": {
            "NORMAL": 25,
            "POSITION": 24,
            "TEXCOORD_0": 26
          },
          "indices": 27,
          "material": 0,
          "mode": 4
        }
      ]
    }
  ],
  "nodes": [
    {
      "children": [
        1
      ],
      "matrix": [
        0.9998899698257446,
        -0.014834300614893436,
        -3.293876419373162e-18,
        0.0,
        -0.0148303909227252,
        -0.9996264576911926,
        0.02295575104653813,
        0.0,
        -0.000340532511472702,
        -0.022953225299715774,
        -0.999736487865448,
        0.0,
        0.0,
        0.0,
        0.0,
        1.0
      ],
      "name": "Sketchfab_model"
    },
    {
      "children": [
        2,
        3,
        4,
        5,
        6,
        7,
        8
      ],
      "name": "tree.obj.cleaner.materialmerger.gles"
    },
    {
      "mesh": 0,
      "name": "Object_2"
    },
    {
      "mesh": 1,
      "name": "Object_3"
    },
    {
      "mesh": 2,
      "name": "Object_4"
    },
    {
      "mesh": 3,
      "name": "Object_5"
    },
    {
      "mesh": 4,
      "name": "Object_6"
    },
    {
      "mesh": 5,
      "name": "Object_7"
    },
    {
      "mesh": 6,
      "name": "Object_8"
    }
  ],
  "samplers": [
    {
      "magFilter": 9729,
      "minFilter": 9987,
      "wrapS": 10497,
      "wrapT": 10497
    }
  ],
  "scene": 0,
  "scenes": [
    {
      "name": "Sketchfab_Scene",
      "nodes": [
        0
      ]
    }
  ],
  "textures": [
    {
      "sampler": 0,
      "source": 0
    }
  ]
}
